<svg width="21" height="21" viewBox="0 0 21 21" fill="none" xmlns="http://www.w3.org/2000/svg">
<path d="M10.125 0C8.12247 0 6.1649 0.593821 4.49986 1.70637C2.83481 2.81892 1.53706 4.40023 0.770724 6.25033C0.00438702 8.10043 -0.196122 10.1362 0.194554 12.1003C0.585229 14.0643 1.54954 15.8685 2.96555 17.2845C4.38156 18.7005 6.18566 19.6648 8.14971 20.0555C10.1138 20.4461 12.1496 20.2456 13.9997 19.4793C15.8498 18.7129 17.4311 17.4152 18.5436 15.7501C19.6562 14.0851 20.25 12.1275 20.25 10.125C20.247 7.4406 19.1793 4.86699 17.2812 2.96883C15.383 1.07067 12.8094 0.00297771 10.125 0ZM18 10.125C18.0003 10.986 17.8587 11.8412 17.5809 12.6562L13.7813 10.3125C13.5588 10.1747 13.3095 10.0858 13.05 10.0519L10.9106 9.76312C10.5799 9.72056 10.2439 9.76631 9.93661 9.89574C9.62934 10.0252 9.36182 10.2337 9.16125 10.5H8.77969L8.52563 9.975C8.40212 9.71791 8.22125 9.49259 7.99695 9.3164C7.77266 9.14021 7.51091 9.01785 7.23188 8.95875L6.98063 8.90625L7.35563 8.25H8.70469C9.02144 8.24993 9.33301 8.16962 9.61032 8.01656L10.7588 7.38281C10.8846 7.31242 11.0023 7.22814 11.1094 7.13156L13.6331 4.85062C13.8324 4.67042 13.9906 4.44951 14.097 4.20284C14.2034 3.95618 14.2556 3.68953 14.25 3.42094C15.3954 4.12528 16.3414 5.11119 16.9979 6.28473C17.6543 7.45827 17.9993 8.78034 18 10.125ZM11.3213 2.34375L11.9025 3.38437L9.63282 5.4375L8.60813 6H7.13813C6.80791 6.00039 6.48363 6.08777 6.19792 6.25334C5.91221 6.41891 5.67516 6.65682 5.51063 6.94312L5.08969 7.67906L4.47 6.02625L5.39907 3.83063C6.23725 3.20054 7.19296 2.74442 8.20999 2.48908C9.22703 2.23373 10.2848 2.18432 11.3213 2.34375ZM2.25 10.125C2.24978 9.27154 2.38912 8.4238 2.6625 7.61531L3.38813 9.55125C3.49762 9.84592 3.67983 10.1081 3.91782 10.3135C4.15581 10.5189 4.44186 10.6608 4.74938 10.7259L6.58032 11.1197L6.86157 11.6916C6.98477 11.9438 7.16276 12.1654 7.38253 12.3401C7.60231 12.5148 7.85832 12.6381 8.13188 12.7012L7.66313 13.7438C7.51396 14.0787 7.46624 14.45 7.5259 14.8117C7.58555 15.1735 7.74995 15.5098 7.99875 15.7791L8.01844 15.7997L9.72094 17.5528L9.6375 17.9831C7.63818 17.8571 5.76182 16.9747 4.38966 15.5151C3.0175 14.0555 2.25247 12.1283 2.25 10.125ZM11.9672 17.7806C12.0205 17.4925 12.0059 17.1958 11.9245 16.9143C11.8431 16.6327 11.6973 16.3741 11.4984 16.1588L11.4788 16.1381L9.8175 14.4272L10.8834 12.0347L12.6647 12.2747L16.5488 14.6634C15.4484 16.222 13.8209 17.3294 11.9672 17.7806Z" fill="black"/>
</svg>
