<svg width="21" height="20" viewBox="0 0 21 20" fill="none" xmlns="http://www.w3.org/2000/svg">
<path d="M19.4811 3.05835L10.4811 0.0583525C10.2506 -0.0194508 10.0009 -0.0194508 9.77046 0.0583525L0.770463 3.05835C0.555714 3.12948 0.367396 3.26369 0.23009 3.44348C0.0927839 3.62326 0.0128686 3.84027 0.00077573 4.06616C-0.000258577 4.08584 -0.000258577 4.10555 0.00077573 4.12523V11.6252C0.00077573 11.9236 0.119302 12.2097 0.330281 12.4207C0.541259 12.6317 0.827407 12.7502 1.12578 12.7502C1.42414 12.7502 1.71029 12.6317 1.92127 12.4207C2.13225 12.2097 2.25078 11.9236 2.25078 11.6252V5.68617L4.47359 6.42679C3.78374 7.74726 3.57873 9.26781 3.89426 10.7238C4.20979 12.1798 5.02586 13.4791 6.20046 14.3955C4.66336 15.1535 3.36249 16.317 2.43828 17.7602C2.35505 17.8839 2.29724 18.0229 2.26821 18.1692C2.23917 18.3154 2.2395 18.466 2.26916 18.6121C2.29883 18.7582 2.35723 18.8969 2.441 19.0203C2.52476 19.1436 2.6322 19.2491 2.75708 19.3305C2.88195 19.412 3.02177 19.4678 3.16841 19.4947C3.31505 19.5217 3.46558 19.5192 3.61125 19.4874C3.75692 19.4557 3.89483 19.3953 4.01696 19.3098C4.13909 19.2243 4.243 19.1153 4.32265 18.9893C5.66046 16.9305 7.78203 15.7502 10.1258 15.7502C12.4695 15.7502 14.5911 16.9305 15.9336 18.9893C16.0132 19.1153 16.1172 19.2243 16.2393 19.3098C16.3614 19.3953 16.4993 19.4557 16.645 19.4874C16.7907 19.5192 16.9412 19.5217 17.0878 19.4947C17.2345 19.4678 17.3743 19.412 17.4992 19.3305C17.624 19.2491 17.7315 19.1436 17.8152 19.0203C17.899 18.8969 17.9574 18.7582 17.9871 18.6121C18.0167 18.466 18.0171 18.3154 17.988 18.1692C17.959 18.0229 17.9012 17.8839 17.818 17.7602C16.8929 16.3153 15.5903 15.1508 14.0511 14.3927C15.2257 13.4763 16.0418 12.177 16.3573 10.721C16.6728 9.265 16.4678 7.74444 15.778 6.42398L19.4811 5.18929C19.7048 5.11444 19.8993 4.97116 20.0372 4.77971C20.175 4.58826 20.2492 4.35832 20.2492 4.12242C20.2492 3.88651 20.175 3.65657 20.0372 3.46512C19.8993 3.27367 19.7048 3.13039 19.4811 3.05554V3.05835ZM10.1258 2.30835L15.568 4.12523L10.1258 5.93929L4.68828 4.12523L10.1258 2.30835ZM14.2508 9.37523C14.2509 10.0159 14.1018 10.6479 13.8152 11.2209C13.5286 11.794 13.1125 12.2924 12.5998 12.6767C12.0871 13.061 11.492 13.3206 10.8615 13.4349C10.2311 13.5491 9.58269 13.515 8.96774 13.3351C8.35279 13.1552 7.78819 12.8346 7.3187 12.3986C6.84922 11.9626 6.48776 11.4232 6.26297 10.8232C6.03819 10.2232 5.95626 9.57909 6.02368 8.94193C6.0911 8.30477 6.30602 7.69208 6.6514 7.15242L9.77046 8.1921C10.001 8.26956 10.2505 8.26956 10.4811 8.1921L13.6002 7.15242C14.0256 7.81568 14.2514 8.58725 14.2508 9.37523Z" fill="#3D4C58"/>
</svg>
