<svg width="21" height="23" viewBox="0 0 21 23" fill="none" xmlns="http://www.w3.org/2000/svg">
<path d="M20.1882 7.77002C20.0856 7.26606 19.8103 6.81373 19.4098 6.49109C19.0093 6.16846 18.5087 5.99577 17.9944 6.00283H12.2372C12.781 5.56464 13.1754 4.96858 13.3661 4.29681C13.5568 3.62505 13.5345 2.91066 13.3022 2.25213C13.0698 1.59359 12.6389 1.02334 12.0689 0.619975C11.4989 0.216611 10.8177 0 10.1194 0C9.42111 0 8.73999 0.216611 8.16995 0.619975C7.59991 1.02334 7.16903 1.59359 6.9367 2.25213C6.70436 2.91066 6.68202 3.62505 6.87275 4.29681C7.06348 4.96858 7.4579 5.56464 8.00162 6.00283H2.24443C1.73204 6.0041 1.23544 6.18022 0.83674 6.50206C0.438042 6.82389 0.161134 7.27218 0.0518118 7.77276C-0.0575109 8.27335 0.00729994 8.79626 0.235526 9.25501C0.463752 9.71377 0.841722 10.0809 1.30693 10.2956L1.32474 10.3041L5.79005 12.2728L3.90943 19.4091C3.69358 19.9434 3.69101 20.5403 3.90225 21.0765C4.11349 21.6127 4.52243 22.0474 5.04474 22.291C5.34186 22.4306 5.66613 22.5029 5.99443 22.5028C6.41336 22.5036 6.82419 22.3873 7.18063 22.1672C7.53707 21.9471 7.82498 21.6318 8.01193 21.2569L10.1194 17.6194L12.2297 21.2569C12.4886 21.7784 12.9395 22.1792 13.4878 22.3752C14.036 22.5712 14.6389 22.547 15.1697 22.3078C15.7004 22.0685 16.1178 21.6329 16.3341 21.0923C16.5504 20.5518 16.5487 19.9484 16.3294 19.4091L14.4544 12.27L18.9197 10.3013L18.9376 10.2928C19.4071 10.0837 19.7889 9.71721 20.0172 9.25667C20.2455 8.79613 20.306 8.27036 20.1882 7.77002ZM10.1194 2.25283C10.3419 2.25283 10.5594 2.31881 10.7444 2.44243C10.9294 2.56604 11.0736 2.74175 11.1588 2.94731C11.2439 3.15288 11.2662 3.37908 11.2228 3.59731C11.1794 3.81554 11.0723 4.01599 10.9149 4.17333C10.7576 4.33066 10.5571 4.43781 10.3389 4.48121C10.1207 4.52462 9.89448 4.50234 9.68891 4.4172C9.48334 4.33205 9.30764 4.18785 9.18402 4.00285C9.06041 3.81784 8.99443 3.60033 8.99443 3.37783C8.99443 3.07946 9.11295 2.79331 9.32393 2.58234C9.53491 2.37136 9.82106 2.25283 10.1194 2.25283ZM12.6657 10.5966C12.4213 10.7044 12.2232 10.8956 12.107 11.1361C11.9907 11.3766 11.9637 11.6506 12.031 11.9091L14.1751 20.0653C14.1923 20.1297 14.2152 20.1925 14.2435 20.2528C14.2294 20.2228 14.2135 20.1928 14.1966 20.1638L11.0926 14.8153C10.9937 14.6448 10.8517 14.5033 10.6809 14.405C10.5101 14.3066 10.3165 14.2548 10.1194 14.2548C9.92234 14.2548 9.72871 14.3066 9.55793 14.405C9.38714 14.5033 9.2452 14.6448 9.1463 14.8153L6.04224 20.1638C6.02537 20.1928 6.00943 20.2228 5.99537 20.2528C6.02369 20.1925 6.04659 20.1297 6.0638 20.0653L8.20787 11.9166C8.27511 11.6581 8.24818 11.3841 8.1319 11.1436C8.01561 10.9031 7.81756 10.7119 7.57318 10.6041L2.24443 8.25283H17.9944L12.6657 10.5966Z" fill="#3D4C58"/>
</svg>
 